<?xml version="1.0" encoding="UTF-8" standalone="no"?>
<!DOCTYPE svg PUBLIC "-//W3C//DTD SVG 1.1//EN" "http://www.w3.org/Graphics/SVG/1.1/DTD/svg11.dtd">
<svg width="100%" height="100%" viewBox="0 0 240 48" version="1.1" xmlns="http://www.w3.org/2000/svg" xmlns:xlink="http://www.w3.org/1999/xlink" xml:space="preserve" xmlns:serif="http://www.serif.com/" style="fill-rule:evenodd;clip-rule:evenodd;stroke-linejoin:round;stroke-miterlimit:2;">
    <g>
        <g id="Layer1">
        </g>
        <path d="M39.2,32C39.2,37.9 35.8,41.5 30.4,42.6C28.9,42.9 26.4,42.9 24.7,42.9L11.6,42.8L11.6,47.8L0,38.3L11.6,28.8L11.6,33.8L26.3,33.9C27.7,33.9 28.3,33.1 28.3,32.3C28.3,30.8 26.9,30.3 22.7,28.3C16,25.1 10.8,22.8 10.8,15.5C10.8,9.8 14.9,5.9 20.9,5.1C22.1,4.9 24.4,4.9 25.8,4.9C28.8,4.9 37.2,5.1 37.2,5.1L37.2,14.2L23.4,14C22.2,14 21.6,14.8 21.6,15.6C21.6,16.8 22.6,17.3 26.5,19.1C34.7,22.9 39.2,25 39.2,32ZM60.9,31.3C60.9,33 59.4,34.4 56.7,34.4C53.8,34.4 52.5,33 52.5,31.3L52.5,5L41.2,5L41.2,32.2C41.2,38.2 46.2,43.9 56.6,43.9C66.5,43.9 72,38.3 72,32.2L72,5L60.9,5L60.9,31.3ZM106.7,31.5C106.7,39 101.6,43.1 94.2,43.1L75.5,43.1L75.5,5L93.5,5C101.6,5 105.7,9.5 105.7,15.4C105.7,18.4 104.3,21 101.5,22.9C104.8,24.7 106.7,27.5 106.7,31.5ZM86.6,20.1L91.8,20.1C93.8,20.1 94.7,18.7 94.7,16.7C94.7,14.6 93.8,13.3 91.8,13.3L86.6,13.3L86.6,20.1ZM95.4,31C95.4,28.7 94.3,27.4 92.3,27.4L86.6,27.4L86.6,34.6L92.3,34.6C94.4,34.6 95.4,33.2 95.4,31Z" style="fill:#f2b700;fill-rule:nonzero;"/>
    </g>
    <g id="Layer2">
        <g transform="matrix(1,0,0,1,1,0)">
            <path d="M107.991,4.9L125.072,4.9C125.675,4.9 141.958,5.063 141.999,23.95C142.041,42.795 124.947,42.921 124.947,42.921L108.016,42.921L107.991,4.9ZM118.112,13.294L118.112,34.369L125.78,34.369C125.78,34.369 131.783,34.391 131.783,23.911C131.783,13.43 125.796,13.294 125.796,13.294L118.112,13.294Z" style="fill:#fff;"/>
        </g>
        <g transform="matrix(1,0,0,1,1,0)">
            <path d="M145.918,4.9L156.05,4.9L156.05,34.369L172.894,34.369L172.894,42.921L145.918,42.921L145.918,4.9Z" style="fill:#fff;"/>
        </g>
        <g transform="matrix(1,0,0,1,1,0)">
            <path d="M176.98,4.9L212.061,4.9L212.061,0.823L223.128,8.975L211.961,17.097L211.961,13.294L186.361,13.294L186.361,20.029L204.123,20.029L204.123,27.463L186.444,27.463L186.444,34.369L204.081,34.369L204.081,42.921L176.98,42.921L176.98,4.9Z" style="fill:#fff;"/>
        </g>
        <g transform="matrix(2.07087,0,0,2.07087,-224.045,-39.8863)">
            <g transform="matrix(0.98,0,0,1,4.15564,0)">
                <g transform="matrix(12,0,0,12,222.625,39.8988)">
                </g>
                <text x="207.782px" y="39.899px" style="font-family:'Bahnschrift-Regular', 'Bahnschrift';font-size:12px;fill:#fff;">.<tspan x="210.261px " y="39.899px ">c</tspan>a</text>
            </g>
        </g>
    </g>
</svg>
